<svg width="120" height="27" viewBox="0 0 120 27" fill="none" xmlns="http://www.w3.org/2000/svg">
<path d="M10 0.0947266H19L9 26.0947H0L10 0.0947266Z" fill="black"/>
<path d="M29.7695 26.0947H20.7695L30.7695 0.0947266H39.7695L29.7695 26.0947Z" fill="black"/>
<path d="M11.7689 17.5947H20.7689L17.4961 26.0947H8.49609L11.7689 17.5947Z" fill="black"/>
<path d="M28.0006 8.59473H19.0006L22.2734 0.0947266H31.2734L28.0006 8.59473Z" fill="black"/>
<path d="M44.0006 8.59473H35.0006L38.2734 0.0947266H47.2734L44.0006 8.59473Z" fill="black"/>
<path d="M51.816 13.0947V4.62273H53.136L53.7 6.31473V13.0947H51.816ZM57.66 13.0947L52.668 6.69873L53.136 4.62273L58.128 11.0187L57.66 13.0947ZM57.66 13.0947L57.156 11.4027V4.62273H59.04V13.0947H57.66ZM60.6754 13.0947V4.62273H62.5594V13.0947H60.6754ZM62.1154 13.0947V11.4627H66.7594V13.0947H62.1154ZM62.1154 9.55473V7.98273H66.3394V9.55473H62.1154ZM62.1154 6.24273V4.62273H66.6994V6.24273H62.1154ZM73.4342 13.0947L71.0702 9.31473H70.8422L67.5782 4.62273H69.8222L72.1502 8.17473H72.3782L75.6422 13.0947H73.4342ZM67.4222 13.0947L70.5542 8.55873L72.0062 9.37473L69.5702 13.0947H67.4222ZM72.4502 9.09873L70.9982 8.28273L73.3502 4.62273H75.4982L72.4502 9.09873ZM78.2201 13.0947V4.74273H80.1041V13.0947H78.2201ZM75.5681 6.26673V4.62273H82.7561V6.26673H75.5681ZM83.8082 13.0947V4.62273H85.6922V13.0947H83.8082ZM85.2602 13.0947V11.4387H89.4482V13.0947H85.2602ZM90.5348 13.0947V4.62273H92.4188V13.0947H90.5348ZM91.9748 13.0947V11.4627H96.6188V13.0947H91.9748ZM91.9748 9.55473V7.98273H96.1988V9.55473H91.9748ZM91.9748 6.24273V4.62273H96.5588V6.24273H91.9748ZM100.394 13.0947L97.1295 4.62273H99.1455L101.63 11.4747H100.802L103.322 4.62273H105.314L102.014 13.0947H100.394ZM106.308 13.0947V4.62273H108.192V13.0947H106.308ZM107.748 13.0947V11.4627H112.392V13.0947H107.748ZM107.748 9.55473V7.98273H111.972V9.55473H107.748ZM107.748 6.24273V4.62273H112.332V6.24273H107.748ZM113.691 13.0947V4.62273H115.575V13.0947H113.691ZM115.143 13.0947V11.4387H119.331V13.0947H115.143ZM53.892 25.0947V16.7427H55.776V25.0947H53.892ZM51.24 18.2667V16.6227H58.428V18.2667H51.24ZM60.9201 21.6027V20.2107H62.7081C63.0841 20.2107 63.3721 20.1147 63.5721 19.9227C63.7801 19.7307 63.8841 19.4707 63.8841 19.1427C63.8841 18.8387 63.7841 18.5867 63.5841 18.3867C63.3841 18.1867 63.0961 18.0867 62.7201 18.0867H60.9201V16.6227H62.9361C63.4961 16.6227 63.9881 16.7307 64.4121 16.9467C64.8361 17.1547 65.1681 17.4467 65.4081 17.8227C65.6481 18.1987 65.7681 18.6307 65.7681 19.1187C65.7681 19.6147 65.6481 20.0507 65.4081 20.4267C65.1681 20.7947 64.8321 21.0827 64.4001 21.2907C63.9681 21.4987 63.4601 21.6027 62.8761 21.6027H60.9201ZM59.4801 25.0947V16.6227H61.3641V25.0947H59.4801ZM64.0881 25.0947L61.4481 21.4467L63.1761 20.9787L66.3201 25.0947H64.0881ZM66.2386 25.0947L69.5986 16.6227H71.3026L74.6266 25.0947H72.6346L70.0906 18.0627H70.7746L68.1946 25.0947H66.2386ZM68.1466 23.5587V22.0227H72.7666V23.5587H68.1466ZM76.795 25.0947V23.4387H78.895C79.407 23.4387 79.855 23.3387 80.239 23.1387C80.623 22.9307 80.919 22.6307 81.127 22.2387C81.335 21.8467 81.439 21.3827 81.439 20.8467C81.439 20.3107 81.331 19.8507 81.115 19.4667C80.907 19.0827 80.611 18.7867 80.227 18.5787C79.851 18.3707 79.407 18.2667 78.895 18.2667H76.735V16.6227H78.919C79.559 16.6227 80.147 16.7267 80.683 16.9347C81.227 17.1347 81.699 17.4267 82.099 17.8107C82.507 18.1867 82.819 18.6347 83.035 19.1547C83.259 19.6667 83.371 20.2347 83.371 20.8587C83.371 21.4747 83.259 22.0427 83.035 22.5627C82.819 23.0827 82.511 23.5307 82.111 23.9067C81.711 24.2827 81.239 24.5747 80.695 24.7827C80.159 24.9907 79.575 25.0947 78.943 25.0947H76.795ZM75.523 25.0947V16.6227H77.407V25.0947H75.523ZM84.5699 25.0947V16.6227H86.4539V25.0947H84.5699ZM88.0855 25.0947V16.6227H89.4055L89.9695 18.3147V25.0947H88.0855ZM93.9295 25.0947L88.9375 18.6987L89.4055 16.6227L94.3975 23.0187L93.9295 25.0947ZM93.9295 25.0947L93.4255 23.4027V16.6227H95.3095V25.0947H93.9295ZM100.941 25.2267C100.325 25.2267 99.7449 25.1147 99.2009 24.8907C98.6649 24.6667 98.1969 24.3587 97.7969 23.9667C97.3969 23.5667 97.0809 23.1027 96.8489 22.5747C96.6249 22.0387 96.5129 21.4627 96.5129 20.8467C96.5129 20.2307 96.6289 19.6587 96.8609 19.1307C97.0929 18.6027 97.4129 18.1427 97.8209 17.7507C98.2369 17.3507 98.7209 17.0427 99.2729 16.8267C99.8249 16.6027 100.417 16.4907 101.049 16.4907C101.777 16.4907 102.437 16.6227 103.029 16.8867C103.629 17.1507 104.125 17.5147 104.517 17.9787L103.233 19.2627C102.961 18.9107 102.641 18.6467 102.273 18.4707C101.905 18.2947 101.489 18.2067 101.025 18.2067C100.529 18.2067 100.085 18.3187 99.6929 18.5427C99.3009 18.7587 98.9929 19.0667 98.7689 19.4667C98.5529 19.8587 98.4449 20.3187 98.4449 20.8467C98.4449 21.3747 98.5529 21.8387 98.7689 22.2387C98.9849 22.6387 99.2809 22.9507 99.6569 23.1747C100.033 23.3987 100.465 23.5107 100.953 23.5107C101.449 23.5107 101.869 23.4187 102.213 23.2347C102.565 23.0427 102.833 22.7707 103.017 22.4187C103.209 22.0587 103.305 21.6227 103.305 21.1107L104.553 21.9507L100.773 21.8907V20.2947H105.225V20.5707C105.225 21.5867 105.041 22.4427 104.673 23.1387C104.313 23.8267 103.809 24.3467 103.161 24.6987C102.521 25.0507 101.781 25.2267 100.941 25.2267Z" fill="black"/>
</svg>
