<svg width="120" height="26" viewBox="0 0 120 26" fill="none" xmlns="http://www.w3.org/2000/svg">
<path d="M10 0H19L9 26H0L10 0Z" fill="white"/>
<path d="M29.7695 26H20.7695L30.7695 0H39.7695L29.7695 26Z" fill="white"/>
<path d="M11.7689 17.5H20.7689L17.4961 26H8.49609L11.7689 17.5Z" fill="white"/>
<path d="M28.0006 8.5H19.0006L22.2734 0H31.2734L28.0006 8.5Z" fill="white"/>
<path d="M44.0006 8.5H35.0006L38.2734 0H47.2734L44.0006 8.5Z" fill="white"/>
<path d="M51.816 13V4.528H53.136L53.7 6.22V13H51.816ZM57.66 13L52.668 6.604L53.136 4.528L58.128 10.924L57.66 13ZM57.66 13L57.156 11.308V4.528H59.04V13H57.66ZM60.6754 13V4.528H62.5594V13H60.6754ZM62.1154 13V11.368H66.7594V13H62.1154ZM62.1154 9.46V7.888H66.3394V9.46H62.1154ZM62.1154 6.148V4.528H66.6994V6.148H62.1154ZM73.4342 13L71.0702 9.22H70.8422L67.5782 4.528H69.8222L72.1502 8.08H72.3782L75.6422 13H73.4342ZM67.4222 13L70.5542 8.464L72.0062 9.28L69.5702 13H67.4222ZM72.4502 9.004L70.9982 8.188L73.3502 4.528H75.4982L72.4502 9.004ZM78.2201 13V4.648H80.1041V13H78.2201ZM75.5681 6.172V4.528H82.7561V6.172H75.5681ZM83.8082 13V4.528H85.6922V13H83.8082ZM85.2602 13V11.344H89.4482V13H85.2602ZM90.5348 13V4.528H92.4188V13H90.5348ZM91.9748 13V11.368H96.6188V13H91.9748ZM91.9748 9.46V7.888H96.1988V9.46H91.9748ZM91.9748 6.148V4.528H96.5588V6.148H91.9748ZM100.394 13L97.1295 4.528H99.1455L101.63 11.38H100.802L103.322 4.528H105.314L102.014 13H100.394ZM106.308 13V4.528H108.192V13H106.308ZM107.748 13V11.368H112.392V13H107.748ZM107.748 9.46V7.888H111.972V9.46H107.748ZM107.748 6.148V4.528H112.332V6.148H107.748ZM113.691 13V4.528H115.575V13H113.691ZM115.143 13V11.344H119.331V13H115.143ZM53.892 25V16.648H55.776V25H53.892ZM51.24 18.172V16.528H58.428V18.172H51.24ZM60.9201 21.508V20.116H62.7081C63.0841 20.116 63.3721 20.02 63.5721 19.828C63.7801 19.636 63.8841 19.376 63.8841 19.048C63.8841 18.744 63.7841 18.492 63.5841 18.292C63.3841 18.092 63.0961 17.992 62.7201 17.992H60.9201V16.528H62.9361C63.4961 16.528 63.9881 16.636 64.4121 16.852C64.8361 17.06 65.1681 17.352 65.4081 17.728C65.6481 18.104 65.7681 18.536 65.7681 19.024C65.7681 19.52 65.6481 19.956 65.4081 20.332C65.1681 20.7 64.8321 20.988 64.4001 21.196C63.9681 21.404 63.4601 21.508 62.8761 21.508H60.9201ZM59.4801 25V16.528H61.3641V25H59.4801ZM64.0881 25L61.4481 21.352L63.1761 20.884L66.3201 25H64.0881ZM66.2386 25L69.5986 16.528H71.3026L74.6266 25H72.6346L70.0906 17.968H70.7746L68.1946 25H66.2386ZM68.1466 23.464V21.928H72.7666V23.464H68.1466ZM76.795 25V23.344H78.895C79.407 23.344 79.855 23.244 80.239 23.044C80.623 22.836 80.919 22.536 81.127 22.144C81.335 21.752 81.439 21.288 81.439 20.752C81.439 20.216 81.331 19.756 81.115 19.372C80.907 18.988 80.611 18.692 80.227 18.484C79.851 18.276 79.407 18.172 78.895 18.172H76.735V16.528H78.919C79.559 16.528 80.147 16.632 80.683 16.84C81.227 17.04 81.699 17.332 82.099 17.716C82.507 18.092 82.819 18.54 83.035 19.06C83.259 19.572 83.371 20.14 83.371 20.764C83.371 21.38 83.259 21.948 83.035 22.468C82.819 22.988 82.511 23.436 82.111 23.812C81.711 24.188 81.239 24.48 80.695 24.688C80.159 24.896 79.575 25 78.943 25H76.795ZM75.523 25V16.528H77.407V25H75.523ZM84.5699 25V16.528H86.4539V25H84.5699ZM88.0855 25V16.528H89.4055L89.9695 18.22V25H88.0855ZM93.9295 25L88.9375 18.604L89.4055 16.528L94.3975 22.924L93.9295 25ZM93.9295 25L93.4255 23.308V16.528H95.3095V25H93.9295ZM100.941 25.132C100.325 25.132 99.7449 25.02 99.2009 24.796C98.6649 24.572 98.1969 24.264 97.7969 23.872C97.3969 23.472 97.0809 23.008 96.8489 22.48C96.6249 21.944 96.5129 21.368 96.5129 20.752C96.5129 20.136 96.6289 19.564 96.8609 19.036C97.0929 18.508 97.4129 18.048 97.8209 17.656C98.2369 17.256 98.7209 16.948 99.2729 16.732C99.8249 16.508 100.417 16.396 101.049 16.396C101.777 16.396 102.437 16.528 103.029 16.792C103.629 17.056 104.125 17.42 104.517 17.884L103.233 19.168C102.961 18.816 102.641 18.552 102.273 18.376C101.905 18.2 101.489 18.112 101.025 18.112C100.529 18.112 100.085 18.224 99.6929 18.448C99.3009 18.664 98.9929 18.972 98.7689 19.372C98.5529 19.764 98.4449 20.224 98.4449 20.752C98.4449 21.28 98.5529 21.744 98.7689 22.144C98.9849 22.544 99.2809 22.856 99.6569 23.08C100.033 23.304 100.465 23.416 100.953 23.416C101.449 23.416 101.869 23.324 102.213 23.14C102.565 22.948 102.833 22.676 103.017 22.324C103.209 21.964 103.305 21.528 103.305 21.016L104.553 21.856L100.773 21.796V20.2H105.225V20.476C105.225 21.492 105.041 22.348 104.673 23.044C104.313 23.732 103.809 24.252 103.161 24.604C102.521 24.956 101.781 25.132 100.941 25.132Z" fill="white"/>
</svg>
